<mxfile host="app.diagrams.net" modified="2024-01-30T23:57:22.689Z" agent="Mozilla/5.0 (Windows NT 10.0; Win64; x64) AppleWebKit/537.36 (KHTML, like Gecko) Chrome/120.0.0.0 Safari/537.36" version="23.0.2" etag="wqgCo5yq1KvqKCwz25fE" type="github">
  <diagram name="Page-1" id="c0hf_dtZIYVA5YSASZBX">
    <mxGraphModel>
      <root>
        <mxCell id="0" />
        <mxCell id="1" parent="0" />
      </root>
    </mxGraphModel>
  </diagram>
</mxfile>
